<svg width="606" height="282" viewBox="0 0 606 282" fill="none" xmlns="http://www.w3.org/2000/svg">
<path fill-rule="evenodd" clip-rule="evenodd" d="M2.25307 -204.595C-0.616642 -198.826 -0.118393 -191.958 3.57601 -186.679C5.24923 -184.294 7.52239 -182.342 10.1447 -181.037L22.5469 -174.886C22.6611 -171.427 23.7578 -168.01 25.7897 -165.102C27.6652 -162.435 30.2289 -160.324 33.2299 -158.986L44.6119 -153.922C44.6617 -150.256 45.8033 -146.635 47.979 -143.52L47.9722 -143.529C50.0478 -140.564 52.9246 -138.284 56.2996 -136.936L66.6862 -132.797C66.7063 -128.952 67.8826 -125.145 70.1417 -121.918L70.1328 -121.911C72.4175 -118.655 75.6093 -116.222 79.3762 -114.878L88.7049 -111.555C88.7078 -107.581 89.9253 -103.674 92.2797 -100.311C94.7783 -96.7392 98.294 -94.1591 102.455 -92.8351L110.731 -90.2063C110.752 -86.1271 112.004 -82.1168 114.407 -78.6814C117.08 -74.8631 121.022 -72.0591 125.524 -70.7859L132.731 -68.7521C132.785 -64.599 134.076 -60.5153 136.509 -57.0472C139.39 -52.9221 143.68 -49.9763 148.587 -48.7454L154.726 -47.2138C154.835 -43.0189 156.167 -38.8951 158.61 -35.3974C161.72 -30.9546 166.351 -27.8758 171.659 -26.7118L176.696 -25.607C176.85 -21.3883 178.213 -17.3014 180.694 -13.7495L180.688 -13.7584C184.018 -8.99098 189.005 -5.76142 194.722 -4.67119L198.667 -3.91632C198.894 0.296885 200.288 4.37013 202.762 7.91192C206.322 12.997 211.659 16.3527 217.785 17.3692L220.634 17.8403C220.944 22.0288 222.37 26.0714 224.819 29.5803C228.555 34.9121 234.396 38.502 240.848 39.4098L242.605 39.6577C242.994 43.8016 244.447 47.7977 246.869 51.2555C250.831 56.9208 257.048 60.6321 263.904 61.4415L264.586 61.5223C265.057 65.6092 266.533 69.5429 268.916 72.9462L268.925 72.9394C273.033 78.8214 279.455 82.6298 286.574 83.4404C287.128 87.4431 288.619 91.2899 290.956 94.6281C295.092 100.539 301.443 104.393 308.544 105.349C309.154 109.274 310.648 112.997 312.979 116.324C317.148 122.272 323.44 126.177 330.531 127.275C331.211 131.116 332.716 134.758 335.001 138.019L334.986 138.017C339.186 144.016 345.439 147.966 352.512 149.197C353.247 152.959 354.763 156.527 357.006 159.728L357.015 159.721C361.167 165.665 367.494 169.721 374.511 171.102C375.306 174.79 376.827 178.287 379.02 181.431L379.011 181.437C383.199 187.408 389.491 191.52 396.505 193.022C397.344 196.636 398.866 200.059 401.025 203.14C405.236 209.165 411.489 213.314 418.496 214.927C419.376 218.471 420.9 221.829 423.02 224.856L423.012 224.863C427.256 230.926 433.493 235.128 440.498 236.849C441.416 240.317 442.938 243.604 445.017 246.572C449.288 252.679 455.495 256.933 462.489 258.761C463.442 262.161 464.962 265.387 467.001 268.31L466.995 268.301C473.263 277.249 483.513 282.283 494.422 281.776L1460.2 236.973C1468.66 236.581 1476.48 232.927 1482.2 226.664C1487.93 220.41 1490.87 212.311 1490.5 203.854L1448.07 -760.92C1447.8 -766.936 1445.84 -772.712 1442.41 -777.628C1436.16 -786.574 1425.9 -791.617 1414.99 -791.11L449.216 -746.306C444.345 -746.081 439.688 -744.77 435.519 -742.505C432.24 -741.912 429.106 -740.8 426.214 -739.215C422.894 -738.624 419.764 -737.491 416.914 -735.913C413.622 -735.352 410.474 -734.241 407.58 -732.625C404.3 -732.08 401.162 -730.976 398.282 -729.355C394.97 -728.819 391.844 -727.697 389.019 -726.098C385.697 -725.591 382.513 -724.476 379.606 -722.799C376.352 -722.312 373.23 -721.221 370.375 -719.573C367.068 -719.106 363.893 -717.999 361.002 -716.301C357.728 -715.853 354.58 -714.757 351.713 -713.062C348.371 -712.627 345.208 -711.504 342.394 -709.826C339.052 -709.417 335.885 -708.298 333.076 -706.608C329.78 -706.234 326.598 -705.146 323.716 -703.385C320.384 -703.024 317.217 -701.914 314.428 -700.2C311.134 -699.886 307.936 -698.811 305.049 -697.009C301.93 -696.729 298.89 -695.745 296.125 -694.087C295.979 -694 295.834 -693.91 295.69 -693.819C292.349 -693.542 289.152 -692.44 286.372 -690.669C283.019 -690.426 279.8 -689.33 277.016 -687.534C273.661 -687.325 270.431 -686.235 267.649 -684.418C264.301 -684.241 261.065 -683.16 258.292 -681.326C254.948 -681.184 251.702 -680.115 248.932 -678.265C242.646 -678.071 236.653 -674.515 233.654 -668.507L2.25307 -204.595ZM245.396 -675.171C241.421 -674.063 237.908 -671.342 235.923 -667.369L4.53984 -203.471C2.07552 -198.535 2.50506 -192.657 5.66966 -188.143C7.09292 -186.103 9.03619 -184.433 11.2848 -183.322L22.6687 -177.675C22.8826 -179.443 23.358 -181.189 24.1013 -182.851L242.467 -670.609C243.229 -672.31 244.223 -673.838 245.396 -675.171ZM25.0846 -176.477C25.2068 -178.287 25.6513 -180.094 26.4251 -181.825L244.766 -669.578C245.901 -672.105 247.629 -674.185 249.713 -675.727C250.676 -675.711 251.644 -675.601 252.603 -675.395C252.097 -674.553 251.651 -673.66 251.273 -672.719L47.6353 -165.291L25.0846 -176.477ZM25.1629 -173.589C25.4659 -171.113 26.376 -168.706 27.8744 -166.559C29.4795 -164.263 31.6908 -162.446 34.269 -161.292L44.7728 -156.619C44.9759 -158.14 45.3698 -159.649 45.9587 -161.113L46.6821 -162.916L25.1629 -173.589ZM48.956 -161.788L48.3106 -160.18C47.7045 -158.672 47.3372 -157.109 47.2029 -155.538L69.981 -145.405L71.7961 -150.46L48.956 -161.788ZM74.0731 -149.331L72.2939 -144.376L94.9959 -134.278L96.2889 -138.313L74.0731 -149.331ZM97.0756 -140.768L74.9406 -151.747L261.568 -671.461L266.372 -669.078L97.0756 -140.768ZM98.5851 -137.174L97.325 -133.242L119.36 -123.439L120.217 -126.445L98.5851 -137.174ZM120.927 -128.937L99.3718 -139.629L268.674 -667.936L273.811 -665.388L120.927 -128.937ZM122.528 -125.299L121.701 -122.398L143.135 -112.864L143.632 -114.833L122.528 -125.299ZM144.269 -117.359L123.238 -127.79L276.122 -664.242L281.575 -661.537L144.269 -117.359ZM145.954 -113.681L145.484 -111.819L166.357 -102.533L166.562 -103.46L145.954 -113.681ZM167.131 -106.019L146.591 -116.207L283.897 -660.385L289.626 -657.544L167.131 -106.019ZM168.901 -102.3L168.72 -101.482L186.473 -93.5848L168.901 -102.3ZM189.554 -94.896L169.47 -104.858L291.971 -656.381L297.957 -653.411L189.554 -94.896ZM211.56 -83.9806L191.904 -93.7304L300.3 -652.249L306.542 -649.153L211.56 -83.9806ZM233.173 -73.2598L213.926 -82.807L308.92 -647.973L315.355 -644.782L233.173 -73.2598ZM241.954 -68.9047L235.571 -72.0708L317.759 -643.59L324.405 -640.293L254.518 -63.3154L241.954 -68.9047ZM308.015 -36.1364L302.955 -38.6463L310.458 -35.6564L314.865 -33.6961L308.015 -36.1364ZM307.165 -33.7261L316.169 -29.2603L316.071 -27.6565L297.857 -33.442L298.137 -36.9425L307.165 -33.7261ZM277.545 -48.4165L287.74 -43.3598L277.407 -47.0412L277.545 -48.4165ZM273.896 -50.2263L275.111 -49.6234L274.941 -47.9199L256.028 -54.658L256.339 -57.2225L273.896 -50.2263ZM240.713 -66.6836L245.885 -64.1187L235.048 -68.4369L235.152 -69.1577L240.713 -66.6836ZM318.632 -28.0387L325.338 -24.7127L318.56 -26.8657L318.632 -28.0387ZM336.388 -22.0629L327.43 -26.5065L336.442 -23.2958L336.388 -22.0629ZM341.21 -19.6712L338.875 -20.8293L338.944 -22.4045L345.488 -20.0732L356.271 -15.2763L356.26 -14.8906L341.21 -19.6712ZM340.317 -17.284L338.743 -17.784L338.548 -13.3114L356.084 -8.36288L356.114 -9.44923L340.317 -17.284ZM358.62 -8.20619L358.605 -7.65161L361.234 -6.90983L358.62 -8.20619ZM374.463 -3.17687L358.695 -10.9981L358.707 -11.4427L375.782 -6.01929L375.746 -2.81484L374.463 -3.17687ZM373.586 -0.783693L375.712 0.270543L375.655 5.29315L358.373 0.980749L358.535 -5.03114L373.586 -0.783693ZM378.246 1.52747L395.091 9.88228L395.092 10.1431L378.197 5.92726L378.246 1.52747ZM395.081 7.05008L386.813 2.94894L395.074 5.2803L395.081 7.05008ZM407.617 13.2684L397.627 8.31293L397.618 5.99819L414.094 10.6475L414.17 14.9033L407.617 13.2684ZM406.765 15.6718L414.25 19.384L414.331 23.9249L397.671 20.2711L397.646 13.3965L406.765 15.6718ZM416.809 20.6535L430.6 27.4933L416.878 24.4836L416.809 20.6535ZM433.112 25.9146L418.23 18.5324L432.997 22.2169L433.112 25.9146ZM440.809 29.7324L435.689 27.1924L435.553 22.8547L450.198 26.5088L451.47 27.0745L451.692 32.1191L440.809 29.7324ZM439.965 32.1379L435.815 31.2276L436.055 38.9197L452.126 41.9947L451.954 38.084L439.965 32.1379ZM451.827 35.1974L450.173 34.3768L451.807 34.7352L451.827 35.1974ZM454.558 39.3753L454.694 42.4861L464.683 44.3973L454.558 39.3753ZM473.948 46.1699L454.431 36.489L454.378 35.2993L485.111 42.0401L491.337 44.8099C489.225 46.5506 486.683 47.6793 484.008 48.0948L473.948 46.1699ZM473.166 48.6042L473.905 48.9708C477.122 50.5699 480.599 51.0867 483.923 50.6623L520.016 57.5682L520.881 57.9529C523.785 59.2442 526.851 59.7066 529.814 59.443L566.928 66.544L567.875 66.9212C570.441 67.9456 573.104 68.3558 575.7 68.2225L613.779 75.5082L614.837 75.8851C617.057 76.6765 619.329 77.0321 621.558 76.9966L660.76 84.4972L661.833 84.838C663.675 85.4243 665.542 85.7249 667.385 85.7647L707.437 93.428L708.787 93.8089C710.283 94.2302 711.79 94.4718 713.283 94.5466L754.473 102.428L755.776 102.753C756.852 103.02 757.931 103.199 759.004 103.294L796.461 110.461L455.203 54.0431L454.809 45.092L473.166 48.6042ZM489.264 49.1003C490.944 48.3055 492.506 47.2441 493.878 45.9403L509.824 53.0342L489.264 49.1003ZM496.955 42.0465L515.854 46.1914L498.399 39.2358L497.501 41.0362C497.329 41.3811 497.147 41.7179 496.955 42.0465ZM499.869 36.2873L512.616 39.4678L500.446 35.132L499.869 36.2873ZM498.015 34.3298L497.352 35.6591L494.491 34.9453L480.646 29.4283L498.015 34.3298ZM502.264 31.4866L541.71 44.0165L543.882 44.6292L760.841 -440C763.096 -445.044 762.554 -450.736 759.392 -455.266L759.383 -455.259C757.778 -457.555 755.567 -459.372 752.995 -460.518L426.186 -605.908L426.781 -592.365L721.017 -446.425C723.639 -445.12 725.913 -443.167 727.579 -440.791C731.273 -435.513 731.787 -428.642 728.893 -422.868L502.264 31.4866ZM426.91 -589.449L719.861 -444.142C722.11 -443.031 724.062 -441.368 725.485 -439.327L725.501 -439.325C728.657 -434.804 729.086 -428.927 726.629 -423.982L499.82 30.7103L461.303 18.4756L453.517 15.7016L426.91 -589.449ZM424.173 -593.659L423.584 -607.065L415.767 -610.543L416.17 -597.628L424.173 -593.659ZM416.261 -594.731L424.302 -590.743L450.929 14.7797L435.125 9.14903L416.261 -594.731ZM413.594 -598.906L413.195 -611.687L405.474 -615.122L405.693 -602.825L413.594 -598.906ZM405.745 -599.947L413.685 -596.009L432.56 8.23527L416.486 2.50844L405.745 -599.947ZM403.134 -604.094L402.917 -616.259L395.303 -619.647L395.346 -607.957L403.134 -604.094ZM395.357 -605.1L403.185 -601.217L413.932 1.59878L397.58 -4.22697L395.357 -605.1ZM392.792 -609.224L392.75 -620.783L385.241 -624.123L385.117 -613.031L392.792 -609.224ZM385.086 -610.195L392.803 -606.367L395.036 -5.1336L384.417 -8.91669L378.389 -11.3186L385.086 -610.195ZM382.593 -614.283L382.715 -625.247L375.322 -628.536L375.039 -618.029L382.593 -614.283ZM374.963 -615.215L382.561 -611.447L375.853 -12.3295L358.913 -19.0796L374.963 -615.215ZM372.531 -619.273L372.811 -629.653L365.558 -632.88L365.125 -622.947L372.531 -619.273ZM365.003 -620.156L372.455 -616.459L356.4 -20.0809L339.142 -26.9576L365.003 -620.156ZM362.627 -624.186L363.054 -633.994L355.927 -637.164L355.353 -627.794L362.627 -624.186ZM355.184 -625.026L362.505 -621.395L336.645 -27.9528L319.056 -34.9617L355.184 -625.026ZM352.884 -629.018L353.45 -638.266L346.459 -641.376L345.753 -632.555L352.884 -629.018ZM345.534 -629.812L352.715 -626.251L316.578 -35.9489L311.392 -38.0156L298.675 -43.6727L345.534 -629.812ZM343.313 -633.766L344.009 -642.466L337.179 -645.505L336.351 -637.219L343.313 -633.766ZM336.08 -634.502L343.094 -631.023L296.219 -44.7651L277.99 -52.8742L336.08 -634.502ZM333.924 -638.422L334.74 -646.59L328.078 -649.553L327.138 -641.788L333.924 -638.422ZM326.812 -639.099L333.653 -635.706L275.545 -53.9619L256.946 -62.2354L326.812 -639.099ZM324.73 -642.982L325.657 -650.631L319.185 -653.51L318.141 -646.251L324.73 -642.982ZM315.738 -647.443L316.765 -654.586L310.5 -657.373L309.363 -650.605L315.738 -647.443ZM306.984 -651.784L308.103 -658.44L302.026 -661.143L300.805 -654.849L306.984 -651.784ZM298.462 -656.012L299.662 -662.195L293.838 -664.786L292.541 -658.948L298.462 -656.012ZM290.196 -660.111L291.469 -665.84L285.898 -668.318L284.536 -662.919L290.196 -660.111ZM282.214 -664.071L283.549 -669.363L278.253 -671.719L276.834 -666.739L282.214 -664.071ZM274.523 -667.885L275.913 -672.761L270.93 -674.977L269.462 -670.395L274.523 -667.885ZM267.161 -671.537L268.596 -676.016L265.338 -677.465C265.042 -677.597 264.745 -677.718 264.446 -677.83C263.642 -676.665 262.974 -675.379 262.475 -673.987L262.437 -673.88L267.161 -671.537ZM260.147 -675.016C260.612 -676.271 261.195 -677.45 261.88 -678.544C260.954 -678.717 260.023 -678.804 259.097 -678.807C258.245 -678.188 257.45 -677.484 256.727 -676.701C256.905 -676.62 257.083 -676.536 257.259 -676.448L260.147 -675.016ZM255.104 -674.622C254.528 -673.744 254.031 -672.797 253.625 -671.786L49.9091 -164.163L72.6636 -152.876L259.277 -672.597L256.119 -674.163C255.784 -674.33 255.445 -674.483 255.104 -674.622ZM254.182 -677.629C254.335 -677.815 254.492 -677.998 254.652 -678.177C254.271 -678.066 253.894 -677.94 253.522 -677.8C253.743 -677.747 253.963 -677.69 254.182 -677.629ZM496.037 38.2947L495.23 39.9139C494.958 40.4567 494.659 40.9762 494.333 41.4714L485.939 39.6305L464.417 30.0565L493.696 37.3618L496.037 38.2947ZM50.0549 -144.971C48.4102 -147.319 47.4502 -150.009 47.2066 -152.768L69.1237 -143.018L67.816 -139.376C67.3547 -138.095 67.0362 -136.781 66.8577 -135.457L57.2487 -139.286C54.3279 -140.446 51.8486 -142.41 50.0549 -144.971ZM70.1961 -138.534L71.4365 -141.989L94.2191 -131.854L92.1448 -125.381L69.295 -134.486C69.4238 -135.853 69.7226 -137.214 70.1961 -138.534ZM94.5045 -124.44L96.5481 -130.817L118.66 -120.981L117.082 -115.444L94.5045 -124.44ZM119.45 -114.5L121.001 -119.939L142.506 -110.372L141.346 -105.775L119.45 -114.5ZM143.72 -104.829L144.855 -109.327L165.797 -100.011L164.985 -96.3556L143.72 -104.829ZM167.37 -95.4052L168.159 -98.9602L188.58 -89.8759L188.053 -87.1632L167.37 -95.4052ZM190.445 -86.2104L190.951 -88.8209L210.883 -79.9539L210.586 -78.1845L190.445 -86.2104ZM212.988 -77.2273L213.268 -78.893L232.738 -70.2315L232.619 -69.4048L212.988 -77.2273ZM378.355 -8.22763L381.148 -6.9852L387.36 -5.01181L383.955 -6.36881L378.356 -8.36337L378.355 -8.22763ZM395.062 1.98068L380.318 -4.57865L378.321 -5.21274L378.286 -2.09802L395.065 2.63639L395.062 1.98068ZM359.328 -13.9161L358.78 -14.1598L358.778 -14.0907L359.328 -13.9161ZM399.088 3.77184L397.608 3.11309L397.609 3.35426L399.088 3.77184ZM402.138 2.35207L414.04 7.64674L414.013 6.12396L402.138 2.35207ZM416.718 15.5392L416.647 11.5832L432.89 18.8091L432.915 19.5806L416.718 15.5392ZM432.397 15.8127L432.802 15.9929L432.8 15.9264L432.397 15.8127ZM435.471 20.2184L435.462 19.9533L436.809 20.5523L435.471 20.2184ZM435.374 17.137L451.027 24.1001L451.342 24.1788L451.208 21.1211L435.359 16.6485L435.374 17.137ZM473.621 36.9289L454.068 28.2301L454.263 32.6832L473.621 36.9289ZM497.431 44.7423L520.785 55.1315L529.94 56.883C532.342 56.6163 534.655 55.7949 536.686 54.4928L530.321 51.9563L497.431 44.7423ZM539.482 55.6069C538.276 56.5561 536.958 57.3449 535.566 57.9594L554.455 61.5735L539.482 55.6069ZM556.53 55.1127L542.861 52.1148C543.217 51.6306 543.551 51.1252 543.861 50.5994L556.53 55.1127ZM588.91 57.3351L546.348 45.325L763.156 -438.967C765.73 -444.736 765.087 -451.535 761.468 -456.716C759.601 -459.39 757.038 -461.501 754.037 -462.84L426.061 -608.744L425.54 -620.6L786.116 -476.912C789.037 -475.752 791.523 -473.778 793.31 -471.227L793.303 -471.236C796.433 -466.766 797.089 -461.091 795.056 -456.034L589.742 55.5725C589.497 56.1837 589.219 56.7716 588.91 57.3351ZM422.943 -621.635L423.459 -609.902L415.679 -613.363L415.326 -624.671L422.943 -621.635ZM412.757 -625.694L413.107 -614.507L405.424 -617.925L405.232 -628.693L412.757 -625.694ZM402.677 -629.711L402.867 -619.062L395.293 -622.432L395.255 -632.669L402.677 -629.711ZM392.702 -633.686L392.739 -623.568L385.272 -626.89L385.381 -636.604L392.702 -633.686ZM382.854 -637.611L382.746 -628.013L375.396 -631.283L375.643 -640.484L382.854 -637.611ZM373.129 -641.486L372.885 -632.4L365.677 -635.607L366.056 -644.305L373.129 -641.486ZM363.547 -645.305L363.173 -636.721L356.093 -639.871L356.595 -648.075L363.547 -645.305ZM354.111 -649.065L353.616 -640.972L346.673 -644.061L347.291 -651.783L354.111 -649.065ZM344.832 -652.762L344.223 -645.151L337.445 -648.166L338.169 -655.418L344.832 -652.762ZM335.719 -656.394L335.006 -649.251L328.398 -652.191L329.221 -658.984L335.719 -656.394ZM326.786 -659.954L325.976 -653.268L319.561 -656.122L320.474 -662.469L326.786 -659.954ZM318.038 -663.44L317.141 -657.199L310.935 -659.96L311.929 -665.874L318.038 -663.44ZM309.514 -666.837L308.538 -661.026L302.523 -663.702L303.59 -669.197L309.514 -666.837ZM301.206 -670.147L300.159 -664.754L294.399 -667.316L295.531 -672.409L301.206 -670.147ZM293.139 -673.362L292.03 -668.37L286.529 -670.817L287.716 -675.523L293.139 -673.362ZM285.342 -676.469L284.18 -671.862L278.956 -674.186L280.148 -678.368C280.163 -678.419 280.178 -678.47 280.193 -678.521L285.342 -676.469ZM277.709 -679.065L276.616 -675.227L271.754 -677.39C272.289 -678.713 272.974 -679.938 273.783 -681.052C274.042 -680.964 274.3 -680.869 274.557 -680.767L277.827 -679.464C277.787 -679.331 277.747 -679.199 277.709 -679.065ZM271.153 -681.706C270.487 -680.683 269.909 -679.586 269.432 -678.423L266.386 -679.778C266.3 -679.816 266.214 -679.854 266.129 -679.89C266.845 -680.636 267.626 -681.31 268.459 -681.906C269.353 -681.916 270.254 -681.85 271.153 -681.706ZM263.881 -681.194C263.758 -681.058 263.637 -680.919 263.517 -680.779C263.349 -680.822 263.181 -680.862 263.013 -680.901C263.299 -681.006 263.589 -681.104 263.881 -681.194ZM540.11 51.5113C540.585 50.9554 541.024 50.3613 541.423 49.7308L537.108 48.1934L512.044 41.9398L531.112 49.538L540.11 51.5113ZM69.2615 -131.771C69.4672 -128.795 70.4691 -125.887 72.2196 -123.384C74.202 -120.559 76.9739 -118.453 80.2373 -117.287L88.8836 -114.207C89.0403 -115.361 89.3007 -116.511 89.6665 -117.647L91.3695 -122.961L69.2615 -131.771ZM93.7291 -122.021L92.0795 -116.873C91.7049 -115.705 91.458 -114.52 91.3359 -113.333L114.162 -105.201L116.383 -112.993L93.7291 -122.021ZM118.752 -112.049L116.557 -104.348L138.971 -96.3621L140.72 -103.295L118.752 -112.049ZM143.094 -102.349L141.368 -95.5081L163.078 -87.7734L164.428 -93.8482L143.094 -102.349ZM166.813 -92.8977L165.484 -86.9163L186.549 -79.4115L187.562 -84.6296L166.813 -92.8977ZM189.953 -83.6767L188.958 -78.5531L209.423 -71.2623L210.156 -75.626L189.953 -83.6767ZM212.558 -74.6687L211.841 -70.4008L231.743 -63.3102L232.248 -66.8226L212.558 -74.6687ZM234.677 -65.8547L234.186 -62.4399L253.575 -55.5319L253.898 -58.1952L234.677 -65.8547ZM457.922 20.3732L454.177 18.8811L460.198 20.7936L463.196 21.8614L457.922 20.3732ZM420.381 8.14651L432.711 13.0599L432.717 13.261L416.596 8.71214L416.565 6.93434L420.381 8.14651ZM457.143 22.796L476.142 30.3669L453.918 24.8213L453.787 21.8488L457.143 22.796ZM567.653 64.0989L545.581 55.3035L575.463 61.8578L581.76 64.1011C579.915 64.9878 577.905 65.5249 575.842 65.6655L567.653 64.0989ZM581.896 66.8239C582.953 66.3872 583.97 65.8543 584.933 65.2316L598.111 69.9265L581.896 66.8239ZM588.584 62.1429L594.389 63.4161L588.978 61.6973C588.907 61.7806 588.835 61.8631 588.762 61.945C588.703 62.0114 588.644 62.0774 588.584 62.1429ZM591.418 58.0429L624.734 67.4438L633.11 69.5338C634.794 67.8497 636.142 65.7787 636.999 63.3936L829.278 -472.059C831.098 -477.136 830.344 -482.793 827.254 -487.209L827.261 -487.2C825.287 -490.032 822.516 -492.138 819.236 -493.306L424.961 -633.775L425.418 -623.377L787.065 -479.262C790.44 -477.914 793.326 -475.64 795.401 -472.675C799.007 -467.512 799.767 -460.929 797.422 -455.082L592.107 56.5237C591.898 57.0448 591.668 57.5514 591.418 58.0429ZM422.821 -624.412L422.369 -634.699L414.93 -637.349L415.239 -627.433L422.821 -624.412ZM412.671 -628.457L412.365 -638.263L405.015 -640.881L405.183 -631.441L412.671 -628.457ZM402.628 -632.459L402.462 -641.791L395.211 -644.374L395.244 -635.401L402.628 -632.459ZM392.691 -636.419L392.659 -645.283L385.506 -647.832L385.411 -639.32L392.691 -636.419ZM382.884 -640.327L382.978 -648.732L375.933 -651.242L375.716 -643.183L382.884 -640.327ZM373.202 -644.185L373.416 -652.139L366.505 -654.601L366.173 -646.986L373.202 -644.185ZM363.664 -647.986L363.991 -655.497L357.197 -657.917L356.758 -650.738L363.664 -647.986ZM354.274 -651.728L354.707 -658.804L348.042 -661.179L347.502 -654.426L354.274 -651.728ZM345.043 -655.406L345.575 -662.058L339.064 -664.378L338.431 -658.041L345.043 -655.406ZM335.981 -659.017L336.604 -665.254L330.254 -667.516L329.536 -661.586L335.981 -659.017ZM327.101 -662.556L327.808 -668.388L321.641 -670.585L320.845 -665.049L327.101 -662.556ZM318.409 -666.02L319.191 -671.458L313.225 -673.583L312.359 -668.431L318.409 -666.02ZM309.944 -669.393L310.793 -674.45L305.009 -676.511L304.081 -671.73L309.944 -669.393ZM301.697 -672.68L302.607 -677.366L297.07 -679.339L296.087 -674.915L301.697 -672.68ZM293.696 -675.868L294.658 -680.198L289.431 -682.06C289.265 -681.575 289.118 -681.08 288.991 -680.577L288.342 -678.002L293.696 -675.868ZM285.968 -678.948L286.533 -681.189C286.681 -681.774 286.851 -682.348 287.045 -682.911L283.769 -684.078C283.552 -684.155 283.335 -684.228 283.117 -684.295C282.324 -683.256 281.638 -682.119 281.08 -680.896L285.968 -678.948ZM278.72 -681.836C279.204 -682.915 279.776 -683.936 280.425 -684.894C279.561 -685.011 278.697 -685.059 277.84 -685.04C277.021 -684.465 276.249 -683.818 275.536 -683.105L278.72 -681.836ZM272.858 -683.952C272.946 -684.052 273.035 -684.151 273.124 -684.249C272.913 -684.181 272.704 -684.11 272.495 -684.034C272.616 -684.008 272.737 -683.981 272.858 -683.952ZM586.305 60.8483C586.086 61.071 585.862 61.2868 585.632 61.4955L576.322 59.4535L562.497 54.528L580.727 59.0765L586.305 60.8483ZM94.3645 -101.768C92.4951 -104.439 91.4479 -107.5 91.2726 -110.64L113.46 -102.735L111.517 -95.9182C111.227 -94.8973 111.017 -93.8656 110.888 -92.8314L103.231 -95.2638C99.5979 -96.4142 96.5334 -98.6632 94.3645 -101.768ZM113.956 -95.2208L115.854 -101.882L138.342 -93.8707L136.063 -84.8349L113.353 -92.0485C113.457 -93.1114 113.658 -94.1727 113.956 -95.2208ZM138.481 -84.0666L140.74 -93.0167L162.52 -85.2573L160.688 -77.0127L138.481 -84.0666ZM163.113 -76.2424L164.925 -84.4002L186.056 -76.8723L184.609 -69.4146L163.113 -76.2424ZM187.035 -68.6438L188.466 -76.0138L208.992 -68.7011L207.87 -62.0257L187.035 -68.6438ZM210.303 -61.2529L211.41 -67.8396L231.371 -60.7282L230.523 -54.8301L210.303 -61.2529ZM232.979 -54.05L233.814 -59.8579L253.26 -52.9301L252.639 -47.805L232.979 -54.05ZM255.104 -47.0223L255.713 -52.0562L274.68 -45.2993L274.244 -40.9424L255.104 -47.0223ZM276.72 -40.1561L277.146 -44.4207L295.664 -37.8234L295.377 -34.2298L276.72 -40.1561ZM535.475 44.9009L538.011 45.8045L542.351 46.8874L541.05 46.4742L535.475 44.9009ZM595.255 66.1989L614.541 73.07L621.712 74.4421C623.346 74.3981 624.952 74.1128 626.481 73.6094L620.769 71.7952L595.255 66.1989ZM630.197 74.7897C629.556 75.1255 628.897 75.4254 628.222 75.6877L640.299 77.9984L630.197 74.7897ZM677.099 80.5101L635.917 70.2342C637.386 68.5151 638.574 66.5081 639.383 64.2595L831.656 -471.202C833.761 -477.048 832.89 -483.574 829.33 -488.659C827.054 -491.922 823.853 -494.349 820.087 -495.693L424.841 -636.503L424.44 -645.627L852.366 -509.706C855.983 -508.558 859.054 -506.3 861.223 -503.195L861.216 -503.204C864.326 -498.761 865.164 -493.253 863.508 -488.09L684.271 71.2173C682.991 75.2086 680.387 78.4169 677.099 80.5101ZM421.852 -646.449L422.249 -637.426L414.845 -640.064L414.573 -648.761L421.852 -646.449ZM412.011 -649.574L412.28 -640.978L404.967 -643.583L404.819 -651.859L412.011 -649.574ZM402.268 -652.669L402.413 -644.493L395.201 -647.062L395.172 -654.923L402.268 -652.669ZM392.62 -655.734L392.649 -647.972L385.536 -650.505L385.62 -657.957L392.62 -655.734ZM383.091 -658.76L383.008 -651.406L376.005 -653.901L376.194 -660.951L383.091 -658.76ZM373.675 -661.751L373.488 -654.798L366.62 -657.244L366.91 -663.9L373.675 -661.751ZM364.392 -664.699L364.106 -658.14L357.358 -660.544L357.742 -666.812L364.392 -664.699ZM355.246 -667.605L354.868 -661.431L348.25 -663.789L348.721 -669.677L355.246 -667.605ZM346.247 -670.463L345.784 -664.668L339.323 -666.97L339.874 -672.487L346.247 -670.463ZM337.405 -673.271L336.863 -667.846L330.566 -670.089L331.19 -675.245L337.405 -673.271ZM328.733 -676.026L328.119 -670.961L322.008 -673.138L322.699 -677.942L328.733 -676.026ZM320.236 -678.725L319.558 -674.011L313.651 -676.115L314.401 -680.578L320.236 -678.725ZM311.954 -681.355L311.219 -676.982L305.496 -679.021L306.298 -683.152L311.954 -681.355ZM303.879 -683.92L303.094 -679.876L297.622 -681.826L297.832 -682.772C298.046 -683.734 298.329 -684.669 298.679 -685.572L303.879 -683.92ZM295.348 -683.307L295.21 -682.685L290.413 -684.394C290.978 -685.514 291.654 -686.569 292.431 -687.546C292.617 -687.494 292.802 -687.438 292.988 -687.379L296.259 -686.34C295.886 -685.361 295.581 -684.348 295.348 -683.307ZM289.672 -688.086C289.046 -687.189 288.49 -686.241 288.009 -685.25L284.945 -686.342C285.648 -687.017 286.403 -687.632 287.201 -688.182C288.019 -688.209 288.844 -688.178 289.672 -688.086ZM282.342 -687.308C282.32 -687.284 282.298 -687.259 282.275 -687.235C282.248 -687.206 282.222 -687.176 282.195 -687.147L282.142 -687.158L282.087 -687.17C282.057 -687.176 282.027 -687.182 281.996 -687.189C282.071 -687.215 282.146 -687.241 282.221 -687.267C282.262 -687.281 282.302 -687.294 282.342 -687.308ZM113.291 -89.3931C113.461 -86.1082 114.544 -82.9035 116.483 -80.1319C118.82 -76.7892 122.274 -74.345 126.222 -73.2248L132.859 -71.3518C132.965 -72.2992 133.137 -73.2443 133.374 -74.1806L135.438 -82.3589L113.291 -89.3931ZM137.857 -81.5906L135.833 -73.5686C135.589 -72.6033 135.426 -71.628 135.341 -70.6517L157.864 -64.2961L160.134 -74.5148L137.857 -81.5906ZM162.559 -73.7446L160.307 -63.6068L182.278 -57.407L184.12 -66.8962L162.559 -73.7446ZM186.546 -66.1254L184.721 -56.7178L205.971 -50.7216L207.444 -59.4879L186.546 -66.1254ZM209.877 -58.7152L208.417 -50.0312L228.998 -44.2237L230.156 -52.2739L209.877 -58.7152ZM232.612 -51.4939L231.466 -43.5274L251.439 -37.8915L252.328 -45.2315L232.612 -51.4939ZM254.792 -44.4489L253.913 -37.1933L273.323 -31.7163L273.986 -38.3525L254.792 -44.4489ZM276.461 -37.5662L275.807 -31.0154L294.694 -25.686L295.168 -31.6243L276.461 -37.5662ZM297.649 -30.8365L297.181 -24.9842L315.589 -19.7897L315.91 -25.0361L297.649 -30.8365ZM318.4 -24.2453L318.084 -19.0858L336.038 -14.0196L336.237 -18.5799L318.4 -24.2453ZM621.511 69.3645L619.866 68.8421L623.729 69.8058L624.447 70.0084L621.511 69.3645ZM661.404 82.0365L647.89 77.7438L665.702 81.6507L670.524 83.0114C669.574 83.1641 668.605 83.2376 667.628 83.2272L661.404 82.0365ZM674.601 84.5614C674.802 84.4879 675.002 84.411 675.201 84.3311L678.998 85.4027L674.601 84.5614ZM680.324 81.3147L711.75 89.1561L720.26 91.0225C725.549 89.1589 729.893 84.8449 731.542 79.0564L897.737 -504.106C899.211 -509.285 898.284 -514.781 895.201 -519.188L895.21 -519.195C892.873 -522.538 889.412 -524.991 885.48 -526.109L423.969 -656.324L424.321 -648.323L853.14 -512.119C857.3 -510.795 860.816 -508.215 863.308 -504.652C866.875 -499.558 867.829 -493.236 865.937 -487.314L686.691 72C685.475 75.7946 683.212 78.9719 680.324 81.3147ZM421.733 -649.145L421.386 -657.053L414.251 -659.066L414.489 -651.446L421.733 -649.145ZM411.928 -652.26L411.692 -659.788L404.642 -661.777L404.771 -654.533L411.928 -652.26ZM402.22 -655.343L402.092 -662.496L395.137 -664.459L395.162 -657.585L402.22 -655.343ZM392.61 -658.395L392.585 -665.179L385.722 -667.115L385.649 -660.606L392.61 -658.395ZM383.12 -661.41L383.192 -667.829L376.431 -669.737L376.265 -663.587L383.12 -661.41ZM373.746 -664.387L373.909 -670.448L367.277 -672.319L367.025 -666.522L373.746 -664.387ZM364.506 -667.322L364.755 -673.031L358.235 -674.87L357.902 -669.42L364.506 -667.322ZM355.406 -670.212L355.734 -675.576L349.337 -677.381L348.928 -672.27L355.406 -670.212ZM346.454 -673.056L346.856 -678.081L340.608 -679.844L340.131 -675.064L346.454 -673.056ZM337.662 -675.848L338.131 -680.543L332.04 -682.262L331.5 -677.806L337.662 -675.848ZM329.043 -678.586L329.572 -682.958L323.66 -684.626L323.064 -680.485L329.043 -678.586ZM320.602 -681.267L321.185 -685.324L315.47 -686.937L314.825 -683.102L320.602 -681.267ZM312.378 -683.879L312.996 -687.556L313.009 -687.631L307.923 -689.066C307.451 -687.981 307.072 -686.841 306.796 -685.652L312.378 -683.879ZM304.387 -686.417C304.665 -687.573 305.031 -688.688 305.476 -689.756L302.191 -690.683C302.043 -690.725 301.895 -690.765 301.748 -690.802C300.996 -689.894 300.331 -688.919 299.761 -687.887L304.387 -686.417ZM297.304 -688.667C297.78 -689.579 298.32 -690.454 298.919 -691.286C298.117 -691.357 297.317 -691.373 296.526 -691.336C295.751 -690.81 295.023 -690.232 294.346 -689.607L297.304 -688.667ZM291.514 -690.364L291.517 -690.368L291.509 -690.365L291.514 -690.364ZM138.594 -58.5046C136.607 -61.3461 135.487 -64.6453 135.299 -68.0275L157.313 -61.8152L155.231 -52.4432C155.037 -51.5712 154.899 -50.6923 154.815 -49.8114L149.208 -51.2104C144.896 -52.2909 141.133 -54.8796 138.594 -58.5046ZM157.707 -51.9007L159.756 -61.1258L181.793 -54.9071L179.603 -43.6262L157.31 -49.1888C157.377 -50.0965 157.508 -51.0029 157.707 -51.9007ZM182.061 -43.013L184.235 -54.2178L205.547 -48.2036L203.765 -37.5973L182.061 -43.013ZM206.224 -36.9837L207.994 -47.5133L228.634 -41.6888L227.204 -31.7486L206.224 -36.9837ZM229.683 -31.1302L231.101 -40.9924L251.13 -35.3404L250.006 -26.0592L229.683 -31.1302ZM252.49 -25.4394L253.604 -34.6422L273.066 -29.15L272.204 -20.5201L252.49 -25.4394ZM274.697 -19.8983L275.551 -28.449L294.487 -23.1051L293.849 -15.1194L274.697 -19.8983ZM296.342 -14.4972L296.974 -22.4032L315.43 -17.195L314.981 -9.84654L296.342 -14.4972ZM317.48 -9.22287L317.925 -16.491L335.924 -11.4117L335.631 -4.69371L317.48 -9.22287ZM338.145 -4.06663L338.434 -10.7035L356.014 -5.74243L355.85 0.351247L338.145 -4.06663ZM707.819 90.8885L708.134 90.9774L708.841 91.1127L707.819 90.8885ZM763.892 100.592L724.345 91.9187C728.867 89.3666 732.428 85.1091 733.959 79.7428L900.16 -503.411C901.844 -509.329 900.796 -515.607 897.27 -520.648C894.612 -524.464 890.655 -527.27 886.159 -528.534L423.852 -658.989L423.543 -666.014L918.575 -542.498C922.881 -541.427 926.65 -538.829 929.19 -535.204L929.199 -535.211C932.261 -530.83 933.269 -525.34 931.96 -520.147L778.801 86.862C776.953 94.2038 770.921 99.4133 763.892 100.592ZM420.963 -666.658L421.268 -659.718L414.168 -661.721L413.959 -668.405L420.963 -666.658ZM411.403 -669.043L411.609 -662.443L404.595 -664.423L404.482 -670.77L411.403 -669.043ZM401.934 -671.406L402.045 -665.142L395.127 -667.094L395.105 -673.11L401.934 -671.406ZM392.553 -673.746L392.575 -667.814L385.751 -669.74L385.815 -675.427L392.553 -673.746ZM383.284 -676.059L383.222 -670.454L376.501 -672.35L376.646 -677.715L383.284 -676.059ZM374.122 -678.345L373.979 -673.062L367.391 -674.921L367.611 -679.97L374.122 -678.345ZM365.085 -680.6L364.868 -675.633L358.394 -677.46L358.684 -682.197L365.085 -680.6ZM356.178 -682.822L355.893 -678.166L349.543 -679.957L349.897 -684.389L356.178 -682.822ZM347.41 -685.01L347.062 -680.657L340.864 -682.406L341.277 -686.54L347.41 -685.01ZM338.792 -687.16L338.387 -683.105L332.348 -684.809L332.814 -688.652L338.792 -687.16ZM330.337 -689.27L329.881 -685.505L324.024 -687.158L324.338 -689.34C324.404 -689.801 324.484 -690.257 324.579 -690.706L330.337 -689.27ZM321.813 -689.689L321.549 -687.856L316.017 -689.418C316.326 -690.498 316.72 -691.545 317.196 -692.549L322.106 -691.323C321.99 -690.786 321.892 -690.241 321.813 -689.689ZM314.692 -693.173C314.25 -692.184 313.876 -691.16 313.574 -690.107L309.109 -691.367C309.689 -692.329 310.346 -693.233 311.071 -694.074C311.182 -694.048 311.292 -694.022 311.403 -693.994L314.692 -693.173ZM308.185 -694.505C307.609 -693.734 307.08 -692.922 306.604 -692.074L303.752 -692.879C304.415 -693.47 305.124 -694.018 305.875 -694.521C306.642 -694.564 307.413 -694.559 308.185 -694.505ZM157.298 -46.5719C157.52 -43.1139 158.679 -39.739 160.694 -36.8548C163.434 -32.9319 167.522 -30.2123 172.208 -29.1783L176.751 -28.182C176.818 -29.0297 176.934 -29.8794 177.1 -30.728L179.118 -41.1277L157.298 -46.5719ZM181.576 -40.5145L179.583 -30.2483C179.414 -29.3767 179.304 -28.5037 179.251 -27.6336L201.278 -22.8025L203.342 -35.0836L181.576 -40.5145ZM205.801 -34.47L203.749 -22.2606L225.165 -17.5637L226.841 -29.2206L205.801 -34.47ZM229.32 -28.6021L227.654 -17.0178L248.36 -12.4763L249.698 -23.5176L229.32 -28.6021ZM252.182 -22.8978L250.853 -11.9295L270.907 -7.53127L271.949 -17.9657L252.182 -22.8978ZM274.441 -17.3438L273.407 -6.98307L292.857 -2.7171L293.643 -12.5528L274.441 -17.3438ZM296.137 -11.9306L295.357 -2.16889L314.257 1.9764L314.823 -7.26841L296.137 -11.9306ZM317.322 -6.6448L316.761 2.52554L335.141 6.55681L335.519 -2.10463L317.322 -6.6448ZM338.032 -1.47764L337.657 7.10866L355.562 11.0357L355.78 2.95069L338.032 -1.47764ZM358.303 3.58015L358.087 11.5894L375.542 15.4177L375.626 7.90245L358.303 3.58015ZM378.167 8.53657L378.084 15.9753L395.128 19.7134L395.102 12.7619L378.167 8.53657ZM769.015 101.716C774.896 99.2323 779.59 94.1226 781.266 87.483L934.427 -519.542C935.916 -525.437 934.769 -531.681 931.283 -536.668C928.403 -540.793 924.113 -543.739 919.212 -544.961L423.427 -668.663L423.156 -674.821L951.696 -558.892C956.375 -557.867 960.47 -555.139 963.21 -551.216L963.217 -551.207C966.274 -546.851 967.362 -541.366 966.204 -536.161L826.081 94.6942C823.943 104.313 814.843 110.645 805.256 109.56L801.528 108.847L769.015 101.716ZM420.847 -669.307L420.579 -675.386L413.694 -676.896L413.877 -671.046L420.847 -669.307ZM411.321 -671.684L411.14 -677.457L404.336 -678.949L404.435 -673.402L411.321 -671.684ZM401.887 -674.038L401.789 -679.508L395.076 -680.98L395.095 -675.732L401.887 -674.038ZM392.543 -676.369L392.524 -681.54L385.9 -682.993L385.844 -678.04L392.543 -676.369ZM383.314 -678.672L383.368 -683.548L376.841 -684.98L376.716 -680.318L383.314 -678.672ZM374.192 -680.948L374.315 -685.534L367.915 -686.938L367.724 -682.562L374.192 -680.948ZM365.198 -683.192L365.385 -687.492L359.093 -688.873L358.842 -684.778L365.198 -683.192ZM356.336 -685.403L356.582 -689.423L350.408 -690.777L350.103 -686.958L356.336 -685.403ZM347.616 -687.579L347.915 -691.324L341.887 -692.646L341.532 -689.096L347.616 -687.579ZM339.047 -689.716L339.395 -693.193L333.718 -694.438C333.469 -693.492 333.282 -692.518 333.161 -691.52L333.122 -691.195L339.047 -689.716ZM330.645 -691.813L330.646 -691.82C330.777 -692.9 330.977 -693.955 331.241 -694.981L326.475 -696.027C326.001 -695.111 325.591 -694.153 325.252 -693.159L330.645 -691.813ZM322.776 -693.776C323.097 -694.745 323.479 -695.684 323.915 -696.588L320.608 -697.314C320.58 -697.32 320.552 -697.326 320.524 -697.332C320.479 -697.342 320.435 -697.351 320.39 -697.36C319.686 -696.572 319.046 -695.733 318.476 -694.849L322.776 -693.776ZM315.895 -695.493C316.357 -696.272 316.865 -697.023 317.418 -697.742C316.689 -697.778 315.961 -697.772 315.238 -697.725C314.518 -697.253 313.828 -696.734 313.174 -696.172L315.895 -695.493ZM182.779 -15.2068C180.707 -18.1686 179.516 -21.5457 179.265 -25.0435L200.859 -20.3071L198.957 -8.99051C198.817 -8.15963 198.723 -7.32811 198.674 -6.49892L195.21 -7.16169C190.149 -8.13348 185.728 -10.9929 182.779 -15.2068ZM201.451 -8.58931L203.33 -19.7652L224.804 -15.0551L222.907 -1.86245L201.182 -6.01915C201.218 -6.87361 201.307 -7.73162 201.451 -8.58931ZM225.405 -1.38439L227.293 -14.5091L248.055 -9.95525L246.527 2.65691L225.405 -1.38439ZM249.029 3.1355L250.548 -9.40843L270.654 -4.99841L269.451 7.04301L249.029 3.1355ZM271.958 7.52259L273.154 -4.45014L292.654 -0.17305L291.736 11.3068L271.958 7.52259ZM294.241 11.7861L295.153 0.375188L314.1 4.53106L313.432 15.4579L294.241 11.7861ZM315.94 15.9377L316.604 5.08022L335.029 9.12155L334.577 19.5037L315.94 15.9377ZM337.096 19.9856L337.546 9.67343L355.493 13.61L355.228 23.4549L337.096 19.9856ZM357.755 23.9383L358.018 14.1638L375.513 18.0011L375.409 27.3161L357.755 23.9383ZM377.952 27.8027L378.055 18.5588L395.138 22.3056L395.17 31.0972L377.952 27.8027ZM397.713 31.5837L397.681 22.8634L414.377 26.5255L414.524 34.8002L397.713 31.5837ZM417.07 35.2873L416.924 27.0841L433.261 30.6674L433.503 38.4315L417.07 35.2873ZM850.209 118.161L813.869 111.208C821.017 108.95 826.813 103.051 828.549 95.2277L968.673 -535.627C969.978 -541.523 968.748 -547.746 965.288 -552.682C962.184 -557.116 957.546 -560.204 952.238 -561.368L423.041 -677.441L422.804 -682.833L984.803 -575.304C989.873 -574.339 994.279 -571.482 997.234 -567.259L997.243 -567.266C1000.33 -562.865 1001.46 -557.51 1000.44 -552.224L873.358 102.486C871.275 113.182 860.902 120.204 850.209 118.161ZM420.23 -683.325L420.464 -678.006L413.613 -679.509L413.453 -684.622L420.23 -683.325ZM410.901 -685.11L411.059 -680.069L404.29 -681.554L404.203 -686.392L410.901 -685.11ZM401.658 -686.879L401.743 -682.112L395.066 -683.577L395.049 -688.143L401.658 -686.879ZM392.498 -688.631L392.514 -684.136L385.929 -685.581L385.977 -689.879L392.498 -688.631ZM383.445 -690.363L383.397 -686.136L376.911 -687.559L377.019 -691.593L383.445 -690.363ZM374.491 -692.076L374.385 -688.113L368.027 -689.507L368.191 -693.282L374.491 -692.076ZM365.659 -693.766L365.497 -690.062L359.249 -691.433L359.465 -694.951L365.659 -693.766ZM356.95 -695.433L356.738 -691.983L350.612 -693.327L350.817 -695.888C350.836 -696.124 350.858 -696.359 350.884 -696.593L356.95 -695.433ZM348.296 -696.085L348.119 -693.874L342.189 -695.175C342.356 -696.179 342.589 -697.164 342.885 -698.124L348.393 -697.07C348.354 -696.743 348.322 -696.415 348.296 -696.085ZM340.379 -698.603C340.101 -697.661 339.877 -696.698 339.709 -695.718L334.508 -696.859C334.865 -697.769 335.281 -698.647 335.751 -699.489L340.379 -698.603ZM333.144 -699.988C332.717 -699.156 332.336 -698.295 332.005 -697.408L327.853 -698.319C328.421 -699.139 329.043 -699.916 329.716 -700.643C329.745 -700.638 329.775 -700.632 329.805 -700.626L333.144 -699.988ZM326.663 -700.971C326.14 -700.31 325.65 -699.619 325.198 -698.901L322.585 -699.475C322.975 -699.798 323.378 -700.109 323.795 -700.406C324.044 -700.583 324.295 -700.754 324.549 -700.919C325.247 -700.974 325.953 -700.992 326.663 -700.971ZM201.239 -3.42423C201.543 0.0955691 202.768 3.48359 204.846 6.45457C208.011 10.9685 212.749 13.9656 218.204 14.8616L220.584 15.2551C220.614 14.4125 220.689 13.5674 220.81 12.7226L222.545 0.652316L201.239 -3.42423ZM225.044 1.13039L223.326 13.0788C223.201 13.9442 223.13 14.8104 223.113 15.6731L244.522 19.2126L246.221 5.18236L225.044 1.13039ZM248.723 5.66097L247.031 19.6274L267.85 23.0693L269.198 9.57852L248.723 5.66097ZM271.705 10.0581L270.364 23.4848L290.496 26.8132L291.532 13.8518L271.705 10.0581ZM294.038 14.3311L293.006 27.2282L312.514 30.4532L313.275 18.0119L294.038 14.3311ZM315.783 18.4918L315.025 30.8685L333.945 33.9964L334.465 22.0663L315.783 18.4918ZM336.984 22.5482L336.467 34.4133L354.851 37.4526L355.159 26.0256L336.984 22.5482ZM357.685 26.509L357.379 37.8706L375.257 40.8262L375.38 29.8946L357.685 26.509ZM377.923 30.3812L377.802 41.2469L395.219 44.1263L395.18 33.683L377.923 30.3812ZM397.723 34.1695L397.761 44.5466L414.748 47.355L414.571 37.3931L397.723 34.1695ZM417.116 37.8801L417.293 47.7757L433.881 50.5181L433.585 41.031L417.116 37.8801ZM436.136 41.5193L436.43 50.9396L452.637 53.6189L452.24 44.6005L436.136 41.5193ZM858.096 120.651L897.111 127.101C908.207 128.934 918.751 121.399 920.624 110.301L1034.66 -568.265C1035.55 -573.561 1034.35 -578.901 1031.27 -583.3L1031.27 -583.284C1028.1 -587.807 1023.37 -590.795 1017.91 -591.7L422.483 -690.138L422.689 -685.439L985.292 -577.794C990.999 -576.697 995.988 -573.483 999.319 -568.716C1002.8 -563.738 1004.08 -557.708 1002.92 -551.744L875.848 102.975C874.06 112.178 866.8 118.977 858.096 120.651ZM420.116 -685.931L419.912 -690.563L413.233 -691.668L413.372 -687.221L420.116 -685.931ZM410.82 -687.71L410.683 -692.089L404.082 -693.18L404.157 -688.984L410.82 -687.71ZM401.612 -689.471L401.538 -693.601L395.025 -694.678L395.04 -690.729L401.612 -689.471ZM392.488 -691.217L392.474 -695.1L386.047 -696.162L386.005 -692.457L392.488 -691.217ZM383.473 -692.942L383.514 -696.581L377.182 -697.628L377.089 -694.163L383.473 -692.942ZM374.56 -694.647L374.652 -698.046L368.444 -699.072L368.303 -695.844L374.56 -694.647ZM365.77 -696.329L365.908 -699.491L359.924 -700.481C359.795 -699.686 359.705 -698.88 359.656 -698.066L359.621 -697.506L365.77 -696.329ZM357.106 -697.987L357.119 -698.209C357.175 -699.115 357.276 -700.011 357.421 -700.895L352.064 -701.78C351.756 -700.906 351.5 -700.011 351.298 -699.098L357.106 -697.987ZM348.812 -699.574C349.006 -700.465 349.246 -701.341 349.532 -702.199L345.023 -702.944C344.561 -702.167 344.147 -701.363 343.783 -700.536L348.812 -699.574ZM341.233 -701.024C341.565 -701.831 341.939 -702.619 342.354 -703.386L339.033 -703.935C338.389 -703.26 337.787 -702.544 337.231 -701.789L341.233 -701.024ZM334.505 -702.311C334.942 -702.97 335.409 -703.605 335.905 -704.216C335.233 -704.224 334.564 -704.2 333.898 -704.143C333.246 -703.726 332.616 -703.273 332.013 -702.788L334.505 -702.311ZM226.904 28.123C224.839 25.1695 223.586 21.7847 223.221 18.268L244.216 21.7392L242.676 34.4535C242.57 35.3258 242.512 36.1987 242.5 37.0688L241.213 36.8871C235.452 36.0705 230.237 32.8747 226.904 28.123ZM245.2 34.7469L246.725 22.1541L267.597 25.6049L266.119 40.4013L245.041 37.4272C245.039 36.5361 245.092 35.6411 245.2 34.7469ZM268.639 40.7568L270.11 26.0205L290.292 29.3573L289.15 43.6508L268.639 40.7568ZM291.665 44.0057L292.803 29.7724L312.357 33.0054L311.513 46.8061L291.665 44.0057ZM314.028 47.161L314.869 33.4207L333.834 36.5562L333.254 49.8736L314.028 47.161ZM335.777 50.2297L336.355 36.9731L354.782 40.0197L354.436 52.8624L335.777 50.2297ZM356.966 53.2194L357.31 40.4377L375.229 43.4002L375.09 55.7766L356.966 53.2194ZM377.635 56.1357L377.773 43.8209L395.228 46.7069L395.272 58.6242L377.635 56.1357ZM397.814 58.9829L397.771 47.1272L414.794 49.9418L414.999 61.4076L397.814 58.9829ZM417.542 61.7664L417.339 50.3626L433.962 53.1109L434.306 64.1317L417.542 61.7664ZM436.854 64.4912L436.511 53.5324L452.751 56.2175L453.217 66.7999L436.854 64.4912ZM455.779 67.1616L455.317 56.6416L886.624 127.952L455.779 67.1616ZM944.019 136.05L900.615 129.926C911.565 129.846 921.257 121.887 923.129 110.735L1037.17 -567.83C1038.17 -573.79 1036.82 -579.79 1033.36 -584.741C1029.8 -589.827 1024.47 -593.189 1018.33 -594.199L422.368 -692.733L422.188 -696.829L1051.01 -608.111C1056.78 -607.295 1061.98 -604.108 1065.31 -599.341L1065.32 -599.347C1068.39 -594.958 1069.67 -589.616 1068.9 -584.303L967.898 118.109C966.249 129.628 955.534 137.674 944.019 136.05ZM419.621 -697.191L419.798 -693.158L413.152 -694.257L413.031 -698.121L419.621 -697.191ZM410.484 -698.48L410.602 -694.679L404.036 -695.764L403.972 -699.399L410.484 -698.48ZM401.428 -699.758L401.492 -696.185L395.016 -697.256L395.003 -700.665L401.428 -699.758ZM392.452 -701.025L392.464 -697.677L386.076 -698.734L386.111 -701.919L392.452 -701.025ZM383.578 -702.276L383.543 -699.152L377.251 -700.193L377.311 -702.433C377.318 -702.675 377.328 -702.916 377.341 -703.156L383.578 -702.276ZM374.772 -702.489L374.721 -700.611L368.592 -701.624C368.683 -702.539 368.822 -703.443 369.01 -704.332L374.817 -703.512C374.796 -703.173 374.781 -702.832 374.772 -702.489ZM366.481 -704.689C366.303 -703.818 366.166 -702.935 366.072 -702.041L360.464 -702.968C360.692 -703.803 360.965 -704.622 361.282 -705.422L366.481 -704.689ZM358.709 -705.785C358.419 -704.999 358.166 -704.198 357.951 -703.384L353.071 -704.191C353.44 -704.951 353.852 -705.691 354.303 -706.407L358.709 -705.785ZM351.58 -706.791C351.177 -706.085 350.809 -705.361 350.475 -704.62L346.603 -705.26C347.142 -705.952 347.724 -706.616 348.346 -707.247L351.58 -706.791ZM345.129 -707.474C344.658 -706.909 344.212 -706.325 343.795 -705.724L341.444 -706.113C342.024 -706.564 342.626 -706.987 343.249 -707.378C343.87 -707.438 344.497 -707.47 345.129 -707.474ZM245.203 40.0243C245.633 43.5161 246.909 46.8733 248.953 49.7981C252.507 54.8744 258.057 58.1943 264.213 58.9194L264.422 58.9442C264.412 58.0213 264.452 57.0946 264.544 56.1685L265.866 42.9392L245.203 40.0243ZM268.385 43.2946L267.075 56.4148C266.98 57.3598 266.945 58.3053 266.97 59.2459L287.706 61.7019L288.946 46.1953L268.385 43.2946ZM291.462 46.5501L290.227 62.0004L310.436 64.394L311.356 49.3567L291.462 46.5501ZM313.872 49.7116L312.954 64.6923L332.507 67.0081L333.142 52.4301L313.872 49.7116ZM335.666 52.7862L335.033 67.3073L353.987 69.5521L354.367 55.4244L335.666 52.7862ZM356.897 55.7813L356.518 69.852L374.908 72.03L375.061 58.3438L356.897 55.7813ZM377.607 58.7029L377.454 72.3316L395.331 74.449L395.282 61.1964L377.607 58.7029ZM397.824 61.555L397.873 74.75L415.273 76.8109L415.045 63.9843L397.824 61.555ZM417.588 64.3432L417.816 77.112L434.774 79.1206L434.387 66.713L417.588 64.3432ZM436.934 67.0724L437.32 79.4221L453.858 81.3809L453.33 69.3854L436.934 67.0724ZM455.893 69.747L456.418 81.684L990.921 144.99C1002.85 146.398 1013.73 137.846 1015.17 125.932L1103.13 -600.335C1103.78 -605.655 1102.44 -611.005 1099.37 -615.395L1099.37 -615.379C1095.82 -620.447 1090.27 -623.775 1084.12 -624.507L421.92 -702.938L422.076 -699.395L1051.38 -610.61C1057.84 -609.702 1063.67 -606.121 1067.41 -600.789C1070.85 -595.871 1072.27 -589.878 1071.42 -583.931L970.412 118.48C968.558 131.37 956.55 140.38 943.656 138.557L455.893 69.747ZM419.508 -699.758L419.355 -703.242L412.847 -704.013L412.951 -700.683L419.508 -699.758ZM410.404 -701.042L410.301 -704.314L403.87 -705.076L403.926 -701.956L410.404 -701.042ZM401.383 -702.315L401.328 -705.377L394.983 -706.128L394.993 -703.216L401.383 -702.315ZM392.442 -703.576L392.431 -706.431L386.294 -707.157C386.203 -706.315 386.151 -705.463 386.141 -704.605L386.14 -704.465L392.442 -703.576ZM383.607 -704.823C383.623 -705.708 383.679 -706.586 383.773 -707.456L378.114 -708.126C377.905 -707.322 377.735 -706.503 377.605 -705.669L383.607 -704.823ZM375.09 -706.024C375.216 -706.838 375.377 -707.639 375.571 -708.427L370.508 -709.027C370.19 -708.297 369.908 -707.55 369.663 -706.79L375.09 -706.024ZM367.108 -707.15C367.335 -707.892 367.592 -708.621 367.881 -709.338L363.597 -709.846C363.159 -709.189 362.755 -708.512 362.386 -707.817L367.108 -707.15ZM359.736 -708.19C360.066 -708.867 360.425 -709.529 360.812 -710.176L357.642 -710.551C357.051 -709.968 356.494 -709.357 355.973 -708.721L359.736 -708.19ZM353.089 -709.128C353.485 -709.675 353.905 -710.207 354.346 -710.724C353.74 -710.71 353.138 -710.671 352.543 -710.608C351.965 -710.247 351.401 -709.859 350.852 -709.444L353.089 -709.128ZM271.001 71.4889C268.976 68.5938 267.681 65.2811 267.188 61.8305L287.504 64.2365L286.413 77.8836C286.334 78.8765 286.313 79.8697 286.349 80.8581C280.155 80.0082 274.602 76.6255 271.001 71.4889ZM288.94 78.0896L290.024 64.5349L310.28 66.9339L309.29 83.106L288.899 81.1236C288.846 80.1164 288.859 79.1028 288.94 78.0896ZM311.812 83.3511L312.799 67.2321L332.396 69.553L331.711 85.2856L311.812 83.3511ZM334.238 85.5314L334.922 69.8522L353.918 72.1019L353.506 87.4045L334.238 85.5314ZM356.039 87.6507L356.45 72.4017L374.879 74.5843L374.713 89.4661L356.039 87.6507ZM377.26 89.7137L377.426 74.8859L395.341 77.0075L395.394 91.4767L377.26 89.7137ZM397.936 91.7237L397.882 77.3085L415.319 79.3735L415.57 93.438L397.936 91.7237ZM418.111 93.6851L417.862 79.6746L434.855 81.6871L435.282 95.3543L418.111 93.6851ZM437.825 95.6017L437.4 81.9885L453.971 83.951L454.555 97.228L437.825 95.6017ZM457.112 97.4767L456.531 84.2542L990.636 147.508C1003.95 149.091 1016.1 139.54 1017.7 126.234L1105.66 -600.033C1106.38 -605.974 1104.89 -611.952 1101.46 -616.843C1097.5 -622.509 1091.29 -626.211 1084.43 -627.03L421.807 -705.503L421.674 -708.538L1117.23 -640.919C1123.77 -640.279 1129.68 -636.824 1133.45 -631.448C1136.52 -627.058 1137.91 -621.708 1137.37 -616.373L1062.45 133.749C1061.22 146.074 1050.18 155.138 1037.84 153.932L457.112 97.4767ZM419.111 -708.787L419.242 -705.807L412.767 -706.574L412.678 -709.412L419.111 -708.787ZM410.134 -709.66L410.221 -706.875L403.825 -707.633L403.801 -708.948C403.794 -709.392 403.797 -709.835 403.81 -710.275L410.134 -709.66ZM401.265 -708.907L401.282 -707.934L395.038 -708.673C395.092 -709.49 395.181 -710.3 395.307 -711.101L401.279 -710.521C401.26 -709.986 401.255 -709.448 401.265 -708.907ZM392.768 -711.348C392.649 -710.564 392.561 -709.771 392.505 -708.973L386.687 -709.662C386.843 -710.413 387.031 -711.154 387.251 -711.884L392.768 -711.348ZM384.68 -712.134C384.478 -711.419 384.304 -710.694 384.158 -709.962L378.888 -710.586C379.146 -711.277 379.432 -711.953 379.746 -712.614L384.68 -712.134ZM377.078 -712.873C376.795 -712.225 376.536 -711.565 376.302 -710.892L371.717 -711.435C372.079 -712.066 372.47 -712.682 372.888 -713.281L377.078 -712.873ZM370.027 -713.559C369.66 -712.971 369.316 -712.37 368.996 -711.757L365.373 -712.186C365.87 -712.765 366.397 -713.323 366.953 -713.858L370.027 -713.559ZM363.585 -713.985C363.174 -713.515 362.782 -713.032 362.407 -712.538L360.27 -712.791C360.785 -713.169 361.312 -713.524 361.851 -713.856C362.425 -713.921 363.004 -713.964 363.585 -713.985ZM289.177 83.6968C289.737 87.0886 291.047 90.3385 293.032 93.1776C296.645 98.3391 302.124 101.757 308.272 102.759C308.214 101.715 308.217 100.66 308.281 99.5988L309.135 85.6371L289.177 83.6968ZM311.657 85.8822L310.808 99.7489C310.741 100.856 310.749 101.955 310.83 103.04L330.869 104.589L331.6 87.821L311.657 85.8822ZM334.128 88.0668L333.399 104.785L352.998 106.3L353.438 89.944L334.128 88.0668ZM355.971 90.1903L355.532 106.496L374.506 107.963L374.684 92.0095L355.971 90.1903ZM377.231 92.2571L377.054 108.16L395.462 109.584L395.404 94.0238L377.231 92.2571ZM397.945 94.2708L398.002 109.78L415.886 111.163L415.615 95.9887L397.945 94.2708ZM418.157 96.2358L418.426 111.359L435.824 112.705L435.361 97.9083L418.157 96.2358ZM437.905 98.1556L438.366 112.901L455.302 114.211L454.667 99.7851L437.905 98.1556ZM457.225 100.034L457.857 114.408L1084.75 162.882C1090.92 163.353 1096.92 161.407 1101.64 157.376C1106.36 153.351 1109.23 147.735 1109.73 141.556L1171.61 -632.412C1172.04 -637.761 1170.59 -643.126 1167.52 -647.5L1167.52 -647.516C1163.53 -653.217 1157.26 -656.791 1150.33 -657.331L421.449 -713.683C421.453 -713.558 421.458 -713.432 421.464 -713.306L421.561 -711.095L1117.48 -643.441C1124.76 -642.734 1131.33 -638.897 1135.53 -632.905C1138.94 -628.031 1140.5 -622.069 1139.9 -616.127L1064.98 133.986C1063.6 147.706 1051.32 157.788 1037.59 156.454L457.225 100.034ZM418.998 -711.344L418.917 -713.188C418.907 -713.419 418.899 -713.65 418.894 -713.881L412.704 -714.359C412.64 -713.567 412.609 -712.768 412.611 -711.965L418.998 -711.344ZM410.076 -712.212C410.08 -712.997 410.114 -713.779 410.176 -714.555L404.362 -715.004C404.213 -714.28 404.093 -713.545 404.002 -712.802L410.076 -712.212ZM401.474 -713.048C401.561 -713.774 401.674 -714.492 401.812 -715.202L396.425 -715.618C396.197 -714.954 395.996 -714.28 395.821 -713.597L401.474 -713.048ZM393.26 -713.846C393.421 -714.512 393.606 -715.17 393.812 -715.82L388.984 -716.193C388.675 -715.588 388.39 -714.972 388.129 -714.345L393.26 -713.846ZM385.5 -714.601C385.734 -715.21 385.989 -715.812 386.265 -716.404L382.194 -716.718C381.795 -716.172 381.416 -715.61 381.061 -715.032L385.5 -714.601ZM378.282 -715.302C378.594 -715.862 378.925 -716.409 379.273 -716.944L376.269 -717.176C375.744 -716.684 375.243 -716.173 374.767 -715.644L378.282 -715.302ZM371.701 -715.942C372.053 -716.39 372.419 -716.828 372.801 -717.256C372.258 -717.229 371.718 -717.183 371.181 -717.118C370.676 -716.811 370.18 -716.484 369.695 -716.137L371.701 -715.942ZM315.064 114.867C313.084 112.039 311.771 108.901 311.159 105.593L330.76 107.109L330.14 121.32C330.093 122.439 330.113 123.55 330.198 124.647C324.093 123.506 318.685 120.049 315.064 114.867ZM332.674 121.423L333.289 107.305L352.93 108.824L352.463 126.146L333.229 125.018C333.076 125.009 332.924 124.999 332.772 124.987C332.656 123.814 332.622 122.624 332.674 121.423ZM354.999 126.295L355.464 109.02L374.477 110.49L374.288 127.425L354.999 126.295ZM376.837 127.575L377.025 110.687L395.471 112.114L395.533 128.671L376.837 127.575ZM398.073 128.82L398.012 112.311L415.931 113.697L416.22 129.884L398.073 128.82ZM418.759 130.033L418.472 113.893L435.903 115.241L436.397 131.067L418.759 130.033ZM438.938 131.216L438.445 115.438L455.413 116.75L456.094 132.222L438.938 131.216ZM458.646 132.372L457.968 116.948L1084.54 165.409C1091.39 165.939 1098.05 163.768 1103.29 159.302C1108.53 154.82 1111.71 148.588 1112.26 141.747L1174.14 -632.222C1174.61 -638.156 1173 -644.101 1169.6 -648.966C1165.17 -655.292 1158.22 -659.259 1150.53 -659.852L421.478 -716.232C421.517 -716.953 421.582 -717.671 421.674 -718.382L1183.44 -673.726C1190.77 -673.294 1197.39 -669.6 1201.6 -663.575L1201.6 -663.559C1204.72 -659.123 1206.18 -653.884 1205.85 -648.45L1157.01 149.373C1156.61 155.747 1153.77 161.592 1148.98 165.83C1144.18 170.068 1138.03 172.202 1131.66 171.831L458.646 132.372ZM419.124 -718.532C419.038 -717.835 418.975 -717.134 418.936 -716.428L413.022 -716.885C413.137 -717.551 413.275 -718.212 413.436 -718.865L419.124 -718.532ZM410.867 -719.016C410.719 -718.377 410.592 -717.732 410.485 -717.082L405.001 -717.506C405.189 -718.121 405.399 -718.727 405.628 -719.323L410.867 -719.016ZM402.977 -719.479C402.771 -718.895 402.582 -718.304 402.412 -717.706L397.413 -718.092C397.672 -718.656 397.95 -719.211 398.248 -719.756L402.977 -719.479ZM395.469 -719.919C395.205 -719.387 394.958 -718.847 394.728 -718.3L390.404 -718.635C390.743 -719.152 391.102 -719.658 391.48 -720.153L395.469 -719.919ZM388.488 -720.328C388.161 -719.846 387.85 -719.354 387.555 -718.855L384.183 -719.116C384.632 -719.594 385.099 -720.055 385.583 -720.498L388.488 -720.328ZM382.044 -720.529C381.698 -720.148 381.362 -719.758 381.036 -719.359L379.15 -719.505C379.595 -719.813 380.049 -720.106 380.511 -720.383C381.019 -720.448 381.53 -720.496 382.044 -720.529ZM333.164 127.55C333.832 130.763 335.145 133.81 337.07 136.56C340.708 141.756 346.059 145.261 352.124 146.528C352.014 145.376 351.975 144.211 352.009 143.036L352.395 128.678L333.164 127.55ZM354.931 128.827L354.546 143.107C354.512 144.395 354.573 145.672 354.727 146.929C355.225 146.979 355.726 147.014 356.231 147.034L374.06 147.765L374.259 129.96L354.931 128.827ZM376.808 130.11L376.61 147.87L395.607 148.649L395.542 131.208L376.808 130.11ZM398.082 131.357L398.147 148.753L416.569 149.509L416.265 132.423L398.082 131.357ZM418.805 132.572L419.108 149.613L436.999 150.346L436.476 133.609L418.805 132.572ZM439.017 133.758L439.539 150.451L456.927 151.164L456.205 134.766L439.017 133.758ZM458.758 134.915L459.477 151.268L1178.58 180.757C1192.16 181.314 1203.68 170.731 1204.28 157.156L1240.09 -664.514C1240.33 -669.96 1238.81 -675.198 1235.68 -679.659L1235.69 -679.65C1231.25 -685.993 1224.27 -689.813 1216.54 -690.132L422.566 -722.691C422.394 -722.092 422.241 -721.487 422.107 -720.877L1183.57 -676.24C1191.69 -675.766 1199.01 -671.67 1203.67 -665.018C1207.11 -660.093 1208.74 -654.32 1208.38 -648.3L1159.52 149.521C1159.1 156.572 1155.94 163.045 1150.65 167.736C1145.35 172.418 1138.55 174.785 1131.5 174.365L458.758 134.915ZM419.534 -721.028C419.656 -721.623 419.796 -722.213 419.952 -722.798L414.808 -723.009C414.578 -722.46 414.365 -721.905 414.17 -721.343L419.534 -721.028ZM411.551 -721.496C411.726 -722.042 411.917 -722.584 412.123 -723.119L407.538 -723.307C407.247 -722.807 406.972 -722.298 406.712 -721.78L411.551 -721.496ZM403.973 -721.94C404.202 -722.442 404.445 -722.937 404.7 -723.423L400.789 -723.584C400.427 -723.128 400.081 -722.663 399.752 -722.188L403.973 -721.94ZM396.828 -722.359C397.112 -722.817 397.409 -723.267 397.719 -723.71L394.88 -723.826C394.584 -723.561 394.294 -723.288 394.009 -723.008C393.855 -722.857 393.703 -722.705 393.553 -722.551L396.828 -722.359ZM390.313 -722.741C390.617 -723.102 390.93 -723.456 391.253 -723.803C390.781 -723.767 390.312 -723.717 389.845 -723.655C389.409 -723.397 388.981 -723.126 388.562 -722.844L390.313 -722.741ZM359.091 158.271C357.219 155.598 355.906 152.643 355.186 149.529C355.498 149.552 355.811 149.57 356.126 149.583L374.031 150.317L373.87 164.742C373.858 165.978 373.924 167.204 374.065 168.414C368.062 166.993 362.684 163.402 359.091 158.271ZM376.421 164.775L376.581 150.422L395.616 151.202L395.684 169.485L379.245 169.084C378.389 169.063 377.538 168.999 376.696 168.891C376.498 167.54 376.405 166.164 376.421 164.775ZM398.224 169.547L398.156 151.307L416.615 152.063L416.935 170.003L398.224 169.547ZM419.473 170.065L419.154 152.167L437.079 152.902L437.629 170.508L419.473 170.065ZM440.167 170.57L439.619 153.006L457.039 153.721L457.799 170.999L440.167 170.57ZM460.348 171.062L459.59 153.825L1178.46 183.297C1193.44 183.902 1206.16 172.232 1206.81 157.259L1242.62 -664.411C1242.89 -670.428 1241.21 -676.198 1237.77 -681.116C1232.87 -688.111 1225.17 -692.321 1216.63 -692.674L423.414 -725.194C423.608 -725.692 423.817 -726.185 424.039 -726.672L1249.62 -706.539C1257.64 -706.341 1265.17 -702.297 1269.77 -695.725C1272.9 -691.264 1274.47 -686.01 1274.32 -680.552L1251.55 164.979C1251.38 171.743 1248.56 178.053 1243.64 182.729C1238.72 187.398 1232.28 189.885 1225.49 189.715L460.348 171.062ZM421.291 -726.739C421.094 -726.265 420.909 -725.787 420.735 -725.304L416.001 -725.498C416.248 -725.955 416.508 -726.405 416.781 -726.849L421.291 -726.739ZM413.894 -726.919C413.656 -726.489 413.429 -726.053 413.212 -725.612L409.157 -725.778C409.465 -726.199 409.785 -726.61 410.116 -727.012L413.894 -726.919ZM406.97 -727.088C406.689 -726.699 406.417 -726.304 406.155 -725.902L402.987 -726.031C403.38 -726.42 403.783 -726.795 404.195 -727.156L406.97 -727.088ZM400.471 -727.081C400.188 -726.782 399.911 -726.478 399.643 -726.169L398.006 -726.236C398.369 -726.474 398.737 -726.703 399.109 -726.922C399.56 -726.987 400.013 -727.04 400.471 -727.081ZM377.216 171.497C377.981 174.517 379.291 177.383 381.111 179.982C384.711 185.131 390.034 188.753 396.008 190.294C395.839 189.028 395.751 187.745 395.747 186.45L395.694 172.018L379.182 171.615C378.523 171.599 377.867 171.56 377.216 171.497ZM398.233 172.079L398.286 186.45C398.293 187.931 398.418 189.396 398.659 190.833C399.849 191.011 401.057 191.109 402.276 191.121L417.314 191.251L416.98 172.536L398.233 172.079ZM419.518 172.598L419.851 191.273L438.283 191.433L437.708 173.041L419.518 172.598ZM440.246 173.103L440.82 191.455L458.705 191.61L457.91 173.534L440.246 173.103ZM460.459 173.596L461.252 191.632L1272.42 198.659C1279.4 198.711 1286 196.052 1290.99 191.17C1295.98 186.28 1298.77 179.742 1298.85 172.767L1308.58 -696.605C1308.64 -702.082 1307.02 -707.342 1303.89 -711.811L1303.88 -711.814C1299.05 -718.719 1291.13 -722.878 1282.71 -722.952L426.07 -730.38C425.814 -729.983 425.567 -729.581 425.331 -729.173L1249.69 -709.076C1258.51 -708.87 1266.79 -704.414 1271.85 -697.191C1275.29 -692.282 1277.02 -686.512 1276.86 -680.505L1254.08 165.018C1253.88 172.473 1250.78 179.409 1245.37 184.547C1239.95 189.692 1232.86 192.429 1225.41 192.235L460.459 173.596ZM422.465 -729.243C422.67 -729.635 422.884 -730.022 423.106 -730.406L419.393 -730.438C419.086 -730.078 418.788 -729.712 418.501 -729.34L422.465 -729.243ZM415.429 -729.414C415.672 -729.769 415.922 -730.12 416.18 -730.466L413.529 -730.489C413.15 -730.165 412.78 -729.831 412.42 -729.488L415.429 -729.414ZM408.969 -729.572C409.21 -729.842 409.457 -730.107 409.708 -730.369C409.289 -730.327 408.873 -730.276 408.46 -730.215C408.123 -730.02 407.791 -729.818 407.462 -729.609L408.969 -729.572ZM403.107 201.698C401.339 199.174 400.04 196.397 399.239 193.47C400.227 193.583 401.225 193.645 402.229 193.654L417.359 193.785L417.615 208.165C417.638 209.519 417.75 210.86 417.949 212.182C412.004 210.538 406.73 206.871 403.107 201.698ZM420.152 208.125L419.896 193.807L438.362 193.967L438.959 213.068L425.277 213.153C423.703 213.163 422.147 213.035 420.624 212.777C420.337 211.254 420.179 209.698 420.152 208.125ZM441.494 213.053L440.899 193.989L458.817 194.144L459.643 212.94L441.494 213.053ZM462.188 212.924L461.363 194.166L1272.38 201.201C1280.04 201.27 1287.27 198.352 1292.74 192.983C1298.23 187.622 1301.29 180.45 1301.37 172.796L1311.1 -696.575C1311.16 -702.588 1309.38 -708.363 1305.95 -713.264C1300.66 -720.83 1291.98 -725.393 1282.74 -725.472L427.882 -732.884C428.147 -733.212 428.419 -733.535 428.699 -733.853L1315.82 -739.364C1324.64 -739.412 1332.93 -735.132 1337.99 -727.909L1337.98 -727.893C1341.11 -723.408 1342.78 -718.141 1342.81 -712.645L1346.12 180.581C1346.18 195.392 1334.16 207.514 1319.33 207.608L462.188 212.924ZM425.399 -733.833C425.166 -733.529 424.939 -733.222 424.718 -732.912L421.796 -732.937C422.123 -733.239 422.455 -733.532 422.794 -733.816L425.399 -733.833ZM418.47 -733.2C418.397 -733.123 418.326 -733.045 418.254 -732.968L416.929 -732.979C417.213 -733.156 417.501 -733.327 417.791 -733.494C418.156 -733.55 418.522 -733.599 418.891 -733.64C418.749 -733.495 418.609 -733.348 418.47 -733.2ZM421.259 215.426C422.092 218.265 423.383 220.96 425.103 223.414C428.74 228.613 433.976 232.319 439.897 234.062C439.666 232.687 439.528 231.291 439.484 229.88L439.037 215.592L425.279 215.677C423.924 215.685 422.582 215.6 421.259 215.426ZM441.573 215.576L442.018 229.8C442.07 231.463 442.265 233.105 442.6 234.712C444.453 235.059 446.357 235.219 448.285 235.178L460.61 234.928L459.754 215.464L441.573 215.576ZM462.299 215.448L463.153 234.877L1366.24 216.557C1373.63 216.407 1380.51 213.388 1385.65 208.069C1390.78 202.751 1393.52 195.752 1393.4 188.373L1377.05 -728.699C1376.94 -734.206 1375.24 -739.486 1372.1 -743.989C1366.81 -751.545 1358.14 -755.956 1348.91 -755.769L432.103 -737.155C431.804 -736.908 431.508 -736.654 431.218 -736.394L1315.81 -741.88C1325.47 -741.938 1334.53 -737.252 1340.06 -729.344C1343.48 -724.436 1345.32 -718.677 1345.34 -712.654L1348.65 180.572C1348.71 196.78 1335.56 210.063 1319.34 210.156L462.299 215.448ZM427.563 -736.372L426.346 -736.364C426.579 -736.506 426.815 -736.644 427.052 -736.778C427.4 -736.835 427.75 -736.885 428.102 -736.928C427.92 -736.745 427.741 -736.56 427.563 -736.372ZM447.092 245.121C445.431 242.74 444.156 240.138 443.298 237.398C444.947 237.641 446.628 237.749 448.326 237.715L460.721 237.463L461.343 251.602C461.408 253.063 461.573 254.51 461.834 255.934C455.944 254.095 450.746 250.349 447.092 245.121ZM463.883 251.474L463.265 237.411L1366.3 219.064C1374.36 218.898 1381.88 215.612 1387.48 209.796C1393.08 203.989 1396.09 196.354 1395.95 188.294L1379.6 -728.778C1379.49 -734.789 1377.61 -740.561 1374.18 -745.462C1368.41 -753.714 1358.95 -758.524 1348.87 -758.314L435.843 -739.777C436.011 -739.877 436.181 -739.974 436.351 -740.07C437.594 -740.278 438.859 -740.404 440.138 -740.447L1382 -772.176C1391.64 -772.499 1400.69 -767.983 1406.21 -760.084L1406.21 -760.075C1409.36 -755.579 1411.12 -750.278 1411.29 -744.754L1440.68 196.174C1441.17 211.809 1428.82 224.957 1413.17 225.493L471.295 257.204C469.008 257.283 466.755 257.089 464.573 256.641C464.192 254.954 463.96 253.226 463.883 251.474ZM465.33 259.362C467.307 259.684 469.332 259.816 471.382 259.746L1413.26 228.029C1430.31 227.454 1443.77 213.118 1443.23 196.08L1413.84 -744.848C1413.65 -750.869 1411.72 -756.641 1408.3 -761.548C1402.28 -770.136 1392.42 -775.063 1381.93 -774.707L444.429 -743.134C446.026 -743.479 447.664 -743.693 449.328 -743.768L1415.09 -788.565C1425.13 -789.036 1434.57 -784.396 1440.32 -776.171L1440.33 -776.177C1443.49 -771.672 1445.3 -766.356 1445.54 -760.815L1487.97 203.959C1488.3 211.741 1485.6 219.192 1480.33 224.948C1475.06 230.711 1467.88 234.075 1460.08 234.435L494.317 279.247C484.285 279.703 474.852 275.072 469.088 266.837C467.47 264.528 466.208 262.011 465.33 259.362Z" fill="url(#paint0_linear_2_24)"/>
<defs>
<linearGradient id="paint0_linear_2_24" x1="450.773" y1="-837.22" x2="1346.63" y2="331.235" gradientUnits="userSpaceOnUse">
<stop stop-color="#00FFFF"/>
<stop offset="1" stop-color="#FF00E5"/>
</linearGradient>
</defs>
</svg>
